<svg width="81px" height="15px" viewBox="0 0 81 15" version="1.1" xmlns="http://www.w3.org/2000/svg" xmlns:xlink="http://www.w3.org/1999/xlink">
            <g stroke="none" stroke-width="1" fill="none" fill-rule="evenodd">
                <g id="ando">
                    <path d="M29.2336436,14.8237818 L28.2010484,12.1973315 L22.1247949,12.1973315 L21.066288,14.8255814 L18.2267442,14.8255814 L24.0708183,0.174418605 L26.135934,0.174418605 L32.0930233,14.8238217 L29.2336436,14.8237818 L29.2336436,14.8237818 Z M27.2093023,9.59302326 L25.1935198,4.62209302 L23.1976744,9.59302326 L27.2093023,9.59302326 L27.2093023,9.59302326 Z" id="Shape" fill="#121820"></path>
                    <path d="M80.2325581,7.49999933 C80.2325581,11.6006459 76.8856225,14.9127907 72.7860897,14.9127907 C68.6667017,14.9127907 65.3197674,11.6006459 65.3197674,7.49999933 C65.3197674,3.3993528 68.6667017,0.0872093023 72.7860897,0.0872093023 C76.8856225,0.0872093023 80.2325581,3.3993528 80.2325581,7.49999933 L80.2325581,7.49999933 Z M67.9360465,7.46627817 C67.9360465,10.1277617 70.0739931,12.2965116 72.7662394,12.2965116 C75.4189323,12.2965116 77.6162791,10.1081394 77.6162791,7.46627817 C77.6162791,4.82441955 75.4189323,2.61627907 72.7662394,2.61627907 C70.0739931,2.61627907 67.9360465,4.78502902 67.9360465,7.46627817 L67.9360465,7.46627817 Z" id="Shape" fill="#121820"></path>
                    <path d="M46.9186047,0.174418605 L46.9186047,14.8255814 L44.0671314,14.8255814 L37.3397722,4.91148794 L37.3397722,14.8255814 L34.7093023,14.8255814 L34.7093023,0.174418605 L37.3360879,0.174418605 L44.0795687,10.1370503 L44.0795687,0.174418605 L46.9186047,0.174418605 L46.9186047,0.174418605 Z" id="Shape" fill="#121820"></path>
                    <path d="M55.826737,0.174418605 C59.9616487,0.174418605 63.0523256,3.27198229 63.0523256,7.5 C63.0523256,11.7278633 59.9616487,14.8255814 55.826737,14.8255814 L50.6686047,14.8255814 L50.6686047,0.174418605 L55.826737,0.174418605 L55.826737,0.174418605 Z M55.8293415,2.79069767 L53.2848837,2.79069767 L53.2848837,12.2093023 L55.8293415,12.2093023 C58.657667,12.2093023 60.4360465,10.3461291 60.4360465,7.48741944 C60.4360465,4.62870976 58.657667,2.79069767 55.8293415,2.79069767 L55.8293415,2.79069767 Z" id="Shape" fill="#121820"></path>
                    <g id="Group" transform="translate(0.000000, 0.087209)" fill="#EE3742">
                        <path d="M13.6124263,0.0872093023 L0.689899264,0.0872093023 C0.358420583,0.0872093023 0.0872093023,0.358419314 0.0872093023,0.689896741 L0.0872093023,14.135682 C0.0872093023,14.4671607 0.358420583,14.7383721 0.689899264,14.7383721 L13.6124263,14.7383721 C13.943905,14.7383721 14.2151163,14.4671607 14.2151163,14.135682 L14.2151163,0.68989675 C14.2151163,0.358419323 13.943905,0.0872093023 13.6124263,0.0872093023 L13.6124263,0.0872093023 Z M12.3837209,3.62943769 C12.3837209,3.73833117 12.2951652,3.82694208 12.1863437,3.82694208 L10.2754462,3.82694208 L11.6040373,12.2425749 C11.6130755,12.2997725 11.5966928,12.357742 11.5591246,12.4017212 C11.5215564,12.4456977 11.4668979,12.4709302 11.4091329,12.4709302 L10.4959146,12.4709302 C10.3981801,12.4709302 10.3161923,12.4008378 10.3009758,12.3041866 L9.5967465,7.84374792 L7.10808029,7.84374792 L4.61836978,7.84374792 L3.9141405,12.3041866 C3.89892134,12.4008379 3.81693614,12.4709302 3.7192017,12.4709302 L2.80598334,12.4709302 C2.74821839,12.4709302 2.69355983,12.4456977 2.65599168,12.4017212 C2.61842352,12.357742 2.60203815,12.2997725 2.61107634,12.2425749 L3.93966744,3.82694208 L2.02877261,3.82694208 C1.91994848,3.82694208 1.83139535,3.73833117 1.83139535,3.62943769 L1.83139535,2.7265715 C1.83139535,2.61767802 1.91994848,2.52906977 2.02877261,2.52906977 L7.10705454,2.52906977 L12.1863437,2.52906977 C12.2951651,2.52906977 12.3837209,2.61767803 12.3837209,2.7265715 L12.3837209,3.62943769 L12.3837209,3.62943769 Z" id="Shape"></path>
                        <path d="M7.15169901,3.8372093 L5.31151847,3.8372093 L4.88372093,6.54069767 L7.15168316,6.54069767 L9.41860465,6.54069767 L8.99080711,3.8372093 L7.15169901,3.8372093 Z" id="Shape"></path>
                    </g>
                </g>
            </g>
        </svg>
